<svg height="512pt" viewBox="0 0 512 512" width="512pt" xmlns="http://www.w3.org/2000/svg"><path d="m256 0c-140.699219 0-256 115.300781-256 256 0 41.699219 11.199219 82.800781 30.699219 119.398438l-30.097657 118c-1.5 5.101562 0 10.5 3.898438 14.101562 2.699219 3 6.601562 4.5 10.5 4.5 1.199219 0 2.402344 0 3.601562-.601562l118-30.097657c36.597657 19.5 77.699219 30.699219 119.398438 30.699219 140.699219 0 256-115.300781 256-256s-115.300781-256-256-256zm0 0" fill="#80e980"/><path d="m512 256c0 140.699219-115.300781 256-256 256v-512c140.699219 0 256 115.300781 256 256zm0 0" fill="#1fbf65"/><path d="m391.300781 301.597656c-12.601562-12.898437-51.601562-51.597656-84.300781-18.898437-1.199219 1.5-20.398438 24.300781-18.898438 25.199219-4.800781.300781-18.300781-7.800782-32.101562-18.597657-6-4.800781-12.300781-10.203125-17.699219-15.601562-17.699219-18-34.800781-42.601563-35.402343-47.699219 1.5-1.5 20.699218-15.601562 26.402343-21 32.699219-32.699219-6-71.699219-18.902343-84.300781-19.796876-20.398438-50.398438-23.101563-78.300782 4.800781-63.597656 63.597656 13.804688 169.800781 48.902344 205.5 20.097656 19.800781 46.800781 39.898438 75 54 45.601562 22.5 95.699219 29.699219 130.5-5.097656 27.601562-27.601563 25.199219-58.503906 4.800781-78.304688zm0 0" fill="#edf5ff"/><path d="m386.5 379.898438c-34.800781 34.800781-84.898438 27.601562-130.5 5.101562v-95.699219c13.800781 10.800781 27.300781 18.898438 32.101562 18.597657-1.5-.898438 17.699219-23.699219 18.898438-25.199219 32.699219-32.699219 71.699219 6 84.300781 18.898437 20.398438 19.800782 22.800781 50.703125-4.800781 78.300782zm0 0" fill="#d7e9ff"/></svg>